<?xml version="1.0" encoding="UTF-8"?><svg id="Layer_1" xmlns="http://www.w3.org/2000/svg" viewBox="0 0 1200 317.19"><defs><style>.cls-1{fill:#F6F8FB;}.cls-2{fill:#bcd154;}</style></defs><path class="cls-1" d="M277.25,264.17c-1.67,0-3.02-1.35-3.02-3.02v-15.24c0-1.67,1.35-3.02,3.02-3.02s3.02,1.35,3.02,3.02v15.24c0,1.67-1.35,3.02-3.02,3.02"/><path class="cls-1" d="M277.25,234.68c-1.67,0-3.02-1.35-3.02-3.02v-75.37c0-19.27-6.07-37.98-17.55-54.1-.97-1.36-.65-3.24.7-4.22,1.36-.96,3.24-.65,4.22.71,12.21,17.15,18.68,37.07,18.68,57.61v75.37c0,1.67-1.35,3.02-3.02,3.02"/><path class="cls-1" d="M76.52,97.6c-.68,0-1.35-.22-1.92-.69-1.28-1.06-1.47-2.96-.41-4.25,21.94-26.55,55.25-41.78,91.38-41.78,29.18,0,57,10.11,78.34,28.49,1.27,1.08,1.41,2.99.32,4.25-1.08,1.27-3,1.41-4.25.32-20.25-17.43-46.67-27.02-74.4-27.02-34.33,0-65.94,14.43-86.73,39.58-.6.72-1.46,1.1-2.33,1.1"/><path class="cls-1" d="M53.9,189.61c-1.67,0-3.02-1.35-3.02-3.02v-30.3c0-14.11,3-27.82,8.91-40.73.69-1.52,2.49-2.19,4-1.49,1.52.69,2.18,2.49,1.49,4-5.55,12.13-8.36,24.99-8.36,38.22v30.3c0,1.67-1.35,3.02-3.02,3.02"/><path class="cls-1" d="M261.29,264.9c-1.67,0-3.02-1.35-3.02-3.02v-86.51c0-1.67,1.35-3.02,3.02-3.02s3.02,1.35,3.02,3.02v86.51c0,1.67-1.35,3.02-3.02,3.02"/><path class="cls-1" d="M261.24,156.42c-1.62,0-2.96-1.28-3.01-2.91-1.63-45.96-42.33-81.97-92.65-81.97-1.67,0-3.02-1.35-3.02-3.02s1.35-3.01,3.02-3.01c25.71,0,50.08,9.07,68.61,25.55,18.55,16.51,29.23,38.6,30.07,62.24.06,1.67-1.24,3.06-2.91,3.12h-.11"/><path class="cls-1" d="M69.86,204.12c-1.67,0-3.02-1.35-3.02-3.02v-44.81c0-41.4,27.48-74.08,73.51-87.41,1.6-.46,3.27.45,3.74,2.06.47,1.6-.45,3.28-2.06,3.74-43.31,12.54-69.15,43.05-69.15,81.61v44.81c0,1.67-1.35,3.02-3.02,3.02"/><path class="cls-1" d="M69.86,266.31c-1.67,0-3.02-1.35-3.02-3.02v-39.47c0-1.67,1.35-3.02,3.02-3.02s3.02,1.35,3.02,3.02v39.47c0,1.67-1.35,3.02-3.02,3.02"/><path class="cls-1" d="M245.34,264.9c-1.67,0-3.02-1.35-3.02-3.02v-15.97c0-1.67,1.35-3.02,3.02-3.02s3.02,1.35,3.02,3.02v15.97c0,1.67-1.35,3.02-3.02,3.02"/><path class="cls-1" d="M245.34,229.43c-1.67,0-3.02-1.35-3.02-3.02v-70.13c0-19.07-8.26-36.91-23.27-50.25-1.25-1.11-1.36-3.02-.25-4.26,1.11-1.25,3.02-1.35,4.26-.25,16.32,14.5,25.31,33.95,25.31,54.76v70.13c0,1.67-1.35,3.02-3.02,3.02"/><path class="cls-1" d="M85.81,244.8c-1.67,0-3.02-1.35-3.02-3.02v-85.49c0-41.99,37.14-76.16,82.79-76.16,13.19,0,25.8,2.78,37.49,8.26,1.51.71,2.16,2.51,1.45,4.02-.71,1.51-2.5,2.17-4.02,1.46-10.88-5.11-22.63-7.7-34.92-7.7-42.32,0-76.75,31.46-76.75,70.12v85.49c0,1.67-1.35,3.02-3.02,3.02"/><path class="cls-1" d="M85.81,266.31c-1.67,0-3.02-1.35-3.02-3.02v-6.22c0-1.67,1.35-3.02,3.02-3.02s3.02,1.35,3.02,3.02v6.22c0,1.67-1.35,3.02-3.02,3.02"/><path class="cls-1" d="M229.39,264.9c-1.67,0-3.02-1.35-3.02-3.02v-49.42c0-1.67,1.35-3.02,3.02-3.02s3.02,1.35,3.02,3.02v49.42c0,1.67-1.35,3.02-3.02,3.02"/><path class="cls-1" d="M229.39,200.25c-1.67,0-3.02-1.35-3.02-3.02v-40.94c0-3.74-.41-7.48-1.23-11.12-.36-1.63.66-3.24,2.29-3.61,1.63-.36,3.24.66,3.61,2.29.91,4.07,1.37,8.25,1.37,12.44v40.94c0,1.67-1.35,3.02-3.02,3.02"/><path class="cls-2" d="M101.99,156.53c-.1,0-.18,0-.28-.02-1.66-.15-2.88-1.62-2.73-3.27,2.89-31.58,32.14-56.32,66.6-56.32,25.1,0,47.86,12.79,59.42,33.37.81,1.46.29,3.3-1.16,4.11-1.46.81-3.3.29-4.11-1.16-10.49-18.68-31.23-30.29-54.15-30.29-31.36,0-57.97,22.33-60.58,50.83-.14,1.56-1.46,2.74-3,2.74"/><path class="cls-1" d="M101.76,266.31c-1.67,0-3.02-1.35-3.02-3.02v-93.77c0-1.67,1.35-3.02,3.02-3.02s3.02,1.35,3.02,3.02v93.77c0,1.67-1.35,3.02-3.02,3.02"/><path class="cls-1" d="M213.43,264.9c-1.67,0-3.02-1.35-3.02-3.02v-105.59c0-1.67,1.35-3.02,3.02-3.02s3.02,1.35,3.02,3.02v105.59c0,1.67-1.35,3.02-3.02,3.02"/><path class="cls-2" d="M118.84,154.15c-.23,0-.47-.02-.71-.09-1.63-.39-2.62-2.02-2.23-3.64,5.13-21.27,26.02-36.72,49.67-36.72,16.86,0,32.6,7.7,42.1,20.6,1,1.34.71,3.23-.64,4.22-1.34,1-3.23.71-4.22-.64-8.37-11.35-22.29-18.13-37.24-18.13-20.9,0-39.32,13.5-43.8,32.09-.33,1.38-1.57,2.31-2.93,2.31"/><path class="cls-1" d="M117.72,215.47c-1.67,0-3.02-1.35-3.02-3.02v-49.69c0-1.67,1.35-3.02,3.02-3.02s3.02,1.35,3.02,3.02v49.69c0,1.67-1.35,3.02-3.02,3.02"/><path class="cls-1" d="M117.72,266.31c-1.67,0-3.02-1.35-3.02-3.02v-31.62c0-1.67,1.35-3.02,3.02-3.02s3.02,1.35,3.02,3.02v31.62c0,1.67-1.35,3.02-3.02,3.02"/><path class="cls-1" d="M133.67,183.83c-1.67,0-3.02-1.35-3.02-3.02v-18.04c0-17.8,15.66-32.28,34.92-32.28s34.93,14.48,34.93,32.28v3.34c0,1.67-1.35,3.02-3.02,3.02s-3.02-1.35-3.02-3.02v-3.34c0-14.47-12.96-26.24-28.89-26.24s-28.88,11.77-28.88,26.24v18.04c0,1.67-1.35,3.02-3.02,3.02"/><path class="cls-1" d="M53.9,266.31c-1.67,0-3.02-1.35-3.02-3.02v-63.11c0-1.67,1.35-3.02,3.02-3.02s3.02,1.35,3.02,3.02v63.11c0,1.67-1.35,3.02-3.02,3.02"/><path class="cls-1" d="M130.65,180.22v49.98c0,19.13,15.56,34.69,34.68,34.69s35.16-15.78,35.16-35.17v-49.5h-69.85ZM172.99,240.08h-14.84l2.69-15.51c.04-.23-.06-.45-.25-.58-2.5-1.67-3.99-4.46-3.99-7.47,0-4.95,4.02-8.97,8.97-8.97s8.97,4.02,8.97,8.97c0,3-1.49,5.79-3.99,7.47-.19.13-.29.35-.25.58l2.69,15.51Z"/><polygon class="cls-1" points="395.74 149.51 395.81 159.04 395.74 159.04 354.62 96.08 328.96 96.08 328.96 203.54 354.4 203.54 354.4 147.48 354.25 138.11 354.4 138.11 398.97 203.54 421.18 203.54 421.18 96.08 395.74 96.08 395.74 149.51"/><path class="cls-1" d="M475.36,122.94c-12.06,0-22.06,3.97-30.02,11.9-7.95,7.93-11.93,17.7-11.93,29.31s3.98,21.38,11.93,29.3c7.95,7.94,17.96,11.9,30.02,11.9s22-3.96,29.97-11.9c7.98-7.92,11.97-17.69,11.97-29.3s-4-21.38-12-29.31c-8.01-7.93-17.98-11.9-29.94-11.9ZM488.75,178.02c-3.73,3.7-8.19,5.55-13.39,5.55s-9.73-1.85-13.43-5.55c-3.7-3.7-5.55-8.33-5.55-13.88s1.85-10.25,5.55-13.92c3.71-3.67,8.18-5.51,13.43-5.51s9.66,1.84,13.39,5.51c3.73,3.67,5.59,8.32,5.59,13.92s-1.86,10.18-5.59,13.88Z"/><path class="cls-1" d="M570.05,122.94c-3.75,0-7.39,1.16-10.92,3.45-3.53,2.31-6.47,5.81-8.82,10.51h-.07v-12.15h-22.29v78.79h24.16v-40.37c0-5.85,1.63-10.43,4.88-13.73,3.25-3.3,7.15-4.96,11.7-4.96,1.3,0,2.68.13,4.16.37,1.48.25,3.19.68,5.14,1.28v-21.77c-1.7-.49-3.16-.86-4.39-1.08-1.22-.23-2.41-.34-3.56-.34Z"/><path class="cls-1" d="M642.69,133.59c-2.55-3.3-5.86-5.91-10.02-7.72-4.37-1.9-8.99-2.85-13.84-2.85-10.91,0-19.94,3.92-27.09,11.74-7.16,7.83-10.72,17.8-10.72,29.9s3.48,21.72,10.46,29.31c6.98,7.58,15.77,11.36,26.38,11.36,5.9,0,11.19-1.12,15.86-3.37,4.49-2.16,7.94-5.15,10.47-8.88v10.45h22.59v-107.45h-24.09v37.51ZM637.93,179.07c-3.68,3.9-8.37,5.86-14.07,5.86s-10.37-1.88-14.14-5.63c-3.78-3.75-5.67-8.68-5.67-14.79s1.87-11.11,5.63-14.85c3.75-3.75,8.48-5.63,14.18-5.63s10.26,1.9,14,5.71c3.72,3.8,5.59,8.73,5.59,14.78s-1.84,10.65-5.51,14.56Z"/><rect class="cls-1" x="683.81" y="124.75" width="24.17" height="78.79"/><path class="cls-1" d="M695.96,89.55c-3.85,0-7.14,1.31-9.86,3.9-2.72,2.61-4.09,5.86-4.09,9.75s1.35,7.07,4.05,9.79c2.7,2.73,6.01,4.1,9.9,4.1s7.33-1.35,9.98-4.06c2.65-2.7,3.98-5.98,3.98-9.83s-1.32-7.15-3.98-9.75c-2.65-2.6-5.98-3.9-9.98-3.9Z"/><path class="cls-1" d="M762.23,143.95c2.65,0,4.98.43,6.98,1.27,1.99.85,3.76,2.04,5.29,3.57,1.52,1.52,3.13,3.84,4.84,6.94l19.96-7.88c-3.16-6.65-6.48-11.6-9.98-14.85-3.5-3.26-7.5-5.73-12-7.43-4.51-1.7-9.73-2.55-15.69-2.55-12.15,0-22.14,3.85-29.97,11.55-7.83,7.7-11.74,17.54-11.74,29.5s3.9,21.88,11.7,29.64c7.81,7.75,17.78,11.63,29.94,11.63,6.25,0,11.66-.96,16.21-2.88,4.55-1.93,8.61-4.63,12.16-8.11,3.55-3.47,6.68-8.31,9.38-14.52l-20.03-7.65c-1.55,3.1-3.17,5.49-4.84,7.16-1.67,1.67-3.5,2.92-5.48,3.75-1.98.82-4.21,1.24-6.71,1.24-5.35,0-9.92-1.9-13.7-5.7s-5.67-8.64-5.67-14.49,1.89-10.68,5.67-14.49,8.34-5.71,13.7-5.71Z"/><path class="cls-1" d="M890.53,138.63c-10.45-2.96-17.13-5.4-20.03-7.35-2.9-1.95-4.35-4.35-4.35-7.2,0-3.05,1.35-5.46,4.05-7.2,2.7-1.75,6.18-2.63,10.43-2.63,2.85,0,5.35.37,7.47,1.09,2.13.73,4.03,1.82,5.71,3.3,1.67,1.47,3.74,4.19,6.19,8.14l21.39-8.1c-3.75-6.86-7.46-11.87-11.11-15.05-3.65-3.17-7.88-5.52-12.68-7.05-4.8-1.52-10.58-2.29-17.34-2.29-12.06,0-21.72,2.88-29,8.63-7.27,5.75-10.92,13.18-10.92,22.29,0,7.51,2.45,13.87,7.35,19.1,4.9,5.23,13.38,9.51,25.43,12.87,9.51,2.61,15.87,4.94,19.1,7.01,3.23,2.08,4.84,5,4.84,8.75s-1.39,6.83-4.17,8.92c-2.78,2.1-6.54,3.16-11.29,3.16-3.7,0-7-.55-9.87-1.65-2.88-1.1-5.35-2.61-7.43-4.5-2.08-1.9-4.26-5.28-6.57-10.14l-22.29,8.03c3.85,8.25,7.71,14.16,11.55,17.7,3.85,3.55,8.59,6.25,14.22,8.11,5.63,1.85,12.27,2.77,19.92,2.77,12.41,0,22.51-2.97,30.32-8.93,7.8-5.95,11.7-14.03,11.7-24.23,0-8.1-2.46-14.9-7.39-20.37-4.92-5.48-13.34-9.87-25.25-13.17Z"/><path class="cls-1" d="M985.91,94.28c-16.11,0-29.46,5.29-40.03,15.87-10.58,10.58-15.87,23.8-15.87,39.66s5.29,29.14,15.87,39.7c10.57,10.56,23.92,15.83,40.03,15.83s29.4-5.32,40.03-15.98c10.63-10.65,15.94-23.83,15.94-39.54s-5.31-29.01-15.94-39.62c-10.63-10.61-23.98-15.91-40.03-15.91ZM1006.99,171.42c-5.55,5.71-12.58,8.56-21.08,8.56s-15.59-2.84-21.08-8.52c-5.51-5.67-8.25-12.89-8.25-21.65s2.75-15.9,8.25-21.61c5.5-5.71,12.53-8.56,21.08-8.56s15.53,2.85,21.08,8.56c5.55,5.7,8.33,12.91,8.33,21.61s-2.78,15.91-8.33,21.61Z"/><path class="cls-1" d="M1131.1,167.59c-3,3.5-5.63,6.02-7.87,7.55-2.25,1.52-4.82,2.71-7.7,3.56-2.88.85-6.13,1.27-9.79,1.27-8.45,0-15.4-2.8-20.86-8.41-5.45-5.6-8.18-12.8-8.18-21.61s2.8-16.31,8.41-21.91c5.6-5.6,12.55-8.41,20.86-8.41,3.5,0,6.57.41,9.23,1.24,2.65.82,5.04,1.9,7.16,3.23,2.13,1.32,4.76,3.68,7.92,7.08l17.11-19.28c-5.45-5.05-10.09-8.65-13.92-10.8-3.82-2.15-8.06-3.82-12.68-5.03-4.63-1.2-9.77-1.8-15.43-1.8-16.16,0-29.58,5.16-40.25,15.5-10.68,10.33-16.02,23.72-16.02,40.18s5.23,29.49,15.69,39.85c10.45,10.35,23.9,15.53,40.37,15.53,6.1,0,11.64-.68,16.62-2.02,4.98-1.35,9.44-3.24,13.39-5.67,3.95-2.43,8.61-6.65,13.96-12.65l-18.02-17.41Z"/><polygon class="cls-1" points="328.9 234.13 339.12 234.13 339.12 262.66 346.18 262.66 346.18 234.13 356.28 234.13 356.28 227.71 328.9 227.71 328.9 234.13"/><path class="cls-1" d="M369.66,236.52c-1.27,0-2.51.37-3.72,1.13-1.21.76-2.22,1.9-3.01,3.41h-.03v-3.98h-6v25.58h6.45v-13.52c0-2.1.59-3.75,1.77-4.96,1.18-1.2,2.58-1.81,4.21-1.81.36,0,.77.03,1.24.1.46.07,1.01.19,1.65.37v-5.93c-.61-.15-1.1-.25-1.48-.31-.38-.05-.73-.08-1.06-.08Z"/><path class="cls-1" d="M391.24,251.38c0,1.79-.53,3.28-1.57,4.48-1.04,1.2-2.41,1.8-4.12,1.8-1.59,0-2.8-.48-3.59-1.42-.8-.95-1.19-2.29-1.19-4.06v-15.11h-6.45v16.76c0,2.92.8,5.21,2.4,6.88,1.59,1.67,3.79,2.5,6.59,2.5,1.87,0,3.49-.37,4.85-1.12,1.37-.75,2.46-1.8,3.27-3.15h.02v3.71h6.22v-25.58h-6.44v14.3Z"/><path class="cls-1" d="M413.72,247.21c-2.18-.5-3.67-.98-4.45-1.43-.79-.45-1.19-1.12-1.19-1.99,0-.72.36-1.32,1.06-1.82.71-.49,1.69-.74,2.95-.74.75,0,1.43.09,2.05.28.62.18,1.19.49,1.72.89.53.41,1.19,1.12,1.96,2.12l4.15-2.78c-1.2-1.63-2.22-2.75-3.07-3.37-.85-.61-1.82-1.08-2.9-1.39-1.08-.31-2.36-.47-3.84-.47-2.95,0-5.37.68-7.27,2.02-1.9,1.35-2.86,3.21-2.86,5.57,0,1.98.69,3.62,2.04,4.88,1.36,1.27,3.71,2.31,7.04,3.12,2.15.5,3.58.99,4.29,1.45.72.47,1.08,1.17,1.08,2.11,0,.88-.4,1.58-1.2,2.09-.8.52-1.83.77-3.1.77-1.06,0-1.96-.14-2.71-.41-.75-.27-1.4-.64-1.95-1.11-.56-.47-1.28-1.39-2.18-2.73l-4.45,2.49c1.18,1.89,2.25,3.23,3.21,4.02.97.79,2.1,1.39,3.39,1.81,1.29.41,2.88.62,4.75.62,3.06,0,5.55-.69,7.47-2.07,1.93-1.39,2.88-3.32,2.88-5.82,0-2.22-.68-3.94-2.02-5.16-1.35-1.21-3.64-2.2-6.86-2.96Z"/><path class="cls-1" d="M433.37,230.73h-6.44v6.35h-3.76v5.3h3.76v13.13c0,2.67.68,4.62,2.03,5.86,1.36,1.23,3.15,1.86,5.36,1.86.72,0,1.41-.06,2.07-.18.67-.12,1.58-.37,2.73-.74v-4.98c-.92.29-1.56.47-1.92.53-.36.06-.75.1-1.17.1-.85,0-1.51-.23-1.97-.71-.46-.47-.7-1.28-.7-2.44v-12.42h5.79v-5.3h-5.79v-6.35Z"/><path class="cls-1" d="M454.56,236.52c-3.75,0-6.92,1.26-9.49,3.78-2.57,2.53-3.86,5.71-3.86,9.57s1.29,7.05,3.87,9.57c2.58,2.53,5.81,3.78,9.68,3.78,1.95,0,3.63-.25,5.04-.76,1.41-.5,2.67-1.24,3.78-2.21,1.11-.97,2.16-2.34,3.15-4.11l-4.59-2.37c-.7,1.14-1.39,2-2.07,2.57-.69.58-1.44,1.02-2.26,1.32-.82.3-1.77.45-2.84.45-2.12,0-3.96-.75-5.51-2.25-1.22-1.17-1.81-2.72-2.08-4.47h19.93v-2.39c0-3.61-1.16-6.6-3.51-8.96-2.34-2.36-5.42-3.54-9.23-3.54ZM447.5,247.6c.33-1.34.86-2.56,1.79-3.53,1.46-1.5,3.23-2.26,5.31-2.26s3.57.55,4.8,1.65c1.23,1.1,1.9,2.48,2.02,4.14h-13.91Z"/><path class="cls-1" d="M490.13,240.43c-.82-1.18-1.93-2.12-3.39-2.8-1.57-.73-3.23-1.08-5-1.08-3.51,0-6.46,1.26-8.83,3.79-2.37,2.52-3.55,5.74-3.55,9.67s1.16,7,3.5,9.5c2.32,2.49,5.2,3.73,8.64,3.73,2.02,0,3.84-.4,5.48-1.2,1.54-.75,2.7-1.78,3.52-3.06v3.69h6.06v-34.95h-6.41v12.72ZM488.31,255.45c-1.37,1.47-3.14,2.21-5.28,2.21s-3.9-.7-5.32-2.11c-1.42-1.41-2.12-3.27-2.12-5.6s.7-4.2,2.11-5.62c1.4-1.41,3.18-2.12,5.33-2.12s3.82.72,5.23,2.16c1.41,1.44,2.11,3.3,2.11,5.58s-.69,4.03-2.06,5.51Z"/><path class="cls-1" d="M527.46,241.89c-3.6-1.05-5.86-1.95-6.8-2.69-.93-.74-1.4-1.64-1.4-2.7,0-1.2.52-2.15,1.55-2.84,1.03-.69,2.37-1.04,4.02-1.04,1.05,0,1.96.13,2.72.38.76.25,1.43.65,2.03,1.2.59.54,1.28,1.5,2.06,2.87l5.74-2.22c-1.16-2.15-2.29-3.72-3.41-4.73-1.12-1-2.43-1.74-3.91-2.23-1.48-.49-3.25-.73-5.32-.73-3.7,0-6.68.9-8.92,2.71-2.24,1.81-3.36,4.13-3.36,6.96,0,2.36.77,4.37,2.31,6.04,1.54,1.67,4.29,3.07,8.24,4.19,3.16.89,5.29,1.74,6.41,2.53,1.12.79,1.67,1.9,1.67,3.35s-.53,2.66-1.6,3.51c-1.07.84-2.52,1.26-4.36,1.26-1.33,0-2.5-.21-3.5-.61-1-.39-1.86-.92-2.55-1.59-.7-.67-1.45-1.86-2.25-3.59l-5.96,2.19c1.17,2.61,2.35,4.48,3.55,5.6,1.18,1.13,2.65,2.01,4.39,2.61,1.74.61,3.8.92,6.17.92,3.84,0,6.96-.95,9.38-2.84,2.41-1.9,3.61-4.45,3.61-7.68,0-2.58-.78-4.76-2.34-6.5-1.56-1.75-4.28-3.19-8.15-4.31Z"/><path class="cls-1" d="M553.64,236.52c-3.75,0-6.92,1.26-9.49,3.78-2.57,2.53-3.86,5.71-3.86,9.57s1.29,7.05,3.87,9.57c2.58,2.53,5.81,3.78,9.68,3.78,1.95,0,3.63-.25,5.04-.76,1.41-.5,2.67-1.24,3.78-2.21,1.11-.97,2.16-2.34,3.15-4.11l-4.59-2.37c-.7,1.14-1.39,2-2.07,2.57-.69.58-1.44,1.02-2.26,1.32-.82.3-1.77.45-2.84.45-2.12,0-3.96-.75-5.51-2.25-1.22-1.17-1.81-2.72-2.08-4.47h19.93v-2.39c0-3.61-1.16-6.6-3.51-8.96-2.34-2.36-5.42-3.54-9.23-3.54ZM546.59,247.6c.33-1.34.86-2.56,1.79-3.53,1.46-1.5,3.23-2.26,5.31-2.26s3.57.55,4.8,1.65c1.23,1.1,1.9,2.48,2.02,4.14h-13.91Z"/><path class="cls-1" d="M581.98,242.2c.98,0,1.85.16,2.61.48.76.32,1.41.75,1.96,1.29.56.55,1.15,1.39,1.78,2.53l5.47-2.2c-1.02-2.11-2.1-3.66-3.2-4.67-1.11-1-2.37-1.76-3.8-2.29-1.42-.53-3.08-.8-4.96-.8-3.86,0-7.06,1.25-9.59,3.75-2.54,2.5-3.81,5.69-3.81,9.56s1.26,7.09,3.77,9.61c2.52,2.51,5.72,3.77,9.61,3.77,2,0,3.72-.31,5.16-.92,1.44-.62,2.72-1.47,3.83-2.56,1.12-1.08,2.1-2.58,2.96-4.5l-5.47-2.15c-.59,1.12-1.19,1.99-1.81,2.61-.61.61-1.29,1.07-2.02,1.37-.73.3-1.57.45-2.52.45-2.02,0-3.74-.72-5.16-2.16-1.43-1.44-2.14-3.27-2.14-5.51s.71-4.04,2.14-5.48c1.43-1.44,3.16-2.16,5.19-2.16Z"/><path class="cls-1" d="M613.65,251.38c0,1.79-.53,3.28-1.57,4.48-1.04,1.2-2.41,1.8-4.12,1.8-1.59,0-2.8-.48-3.59-1.42-.8-.95-1.2-2.29-1.2-4.06v-15.11h-6.45v16.76c0,2.92.8,5.21,2.4,6.88,1.59,1.67,3.78,2.5,6.59,2.5,1.87,0,3.49-.37,4.85-1.12,1.37-.75,2.46-1.8,3.27-3.15h.02v3.71h6.22v-25.58h-6.44v14.3Z"/><path class="cls-1" d="M638.22,236.52c-1.27,0-2.51.37-3.72,1.13-1.21.76-2.22,1.9-3.01,3.41h-.03v-3.98h-6v25.58h6.45v-13.52c0-2.1.59-3.75,1.77-4.96s2.58-1.81,4.21-1.81c.36,0,.77.03,1.23.1.46.07,1.01.19,1.65.37v-5.93c-.61-.15-1.1-.25-1.48-.31-.38-.05-.73-.08-1.06-.08Z"/><path class="cls-1" d="M647.31,226.61c-1.08,0-1.99.37-2.75,1.08-.76.73-1.14,1.63-1.14,2.72s.38,1.97,1.14,2.73c.76.76,1.67,1.13,2.75,1.13s2.02-.37,2.76-1.12c.74-.75,1.12-1.66,1.12-2.73s-.37-2-1.12-2.72c-.74-.72-1.67-1.08-2.76-1.08Z"/><rect class="cls-1" x="644.08" y="237.08" width="6.42" height="25.58"/><path class="cls-1" d="M664.15,230.73h-6.44v6.35h-3.76v5.3h3.76v13.13c0,2.67.68,4.62,2.03,5.86,1.36,1.23,3.15,1.86,5.36,1.86.72,0,1.41-.06,2.07-.18.67-.12,1.58-.37,2.73-.74v-4.98c-.92.29-1.56.47-1.92.53-.36.06-.75.1-1.17.1-.85,0-1.51-.23-1.97-.71-.46-.47-.7-1.28-.7-2.44v-12.42h5.79v-5.3h-5.79v-6.35Z"/><polygon class="cls-1" points="685.09 253.78 684.65 255.04 684.6 255.04 684.17 253.78 677.82 237.08 671.13 237.08 681.22 262.02 676.52 272.18 683.34 272.18 698.03 237.08 691.34 237.08 685.09 253.78"/><path class="cls-1" d="M719.07,235.64c0-1.12.26-1.96.8-2.5.53-.55,1.26-.82,2.18-.82.42,0,.84.04,1.28.12.44.08,1.07.25,1.9.51v-4.88c-1.31-.42-2.28-.69-2.93-.78-.65-.1-1.28-.15-1.88-.15-2.42,0-4.33.74-5.7,2.22-1.38,1.47-2.06,3.44-2.06,5.92v2.07h-4.01v5.27h4.01v20.04h6.42v-20.04h5.61v-5.27h-5.61v-1.71Z"/><path class="cls-1" d="M738.68,236.51c-3.86,0-7.07,1.3-9.63,3.89-2.56,2.59-3.84,5.74-3.84,9.47s1.28,6.88,3.84,9.47c2.57,2.59,5.78,3.88,9.63,3.88s7.05-1.29,9.63-3.88c2.57-2.59,3.86-5.74,3.86-9.47s-1.29-6.88-3.86-9.47c-2.58-2.59-5.79-3.89-9.63-3.89ZM743.82,255.21c-1.43,1.43-3.14,2.14-5.14,2.14s-3.71-.71-5.13-2.14c-1.41-1.43-2.12-3.2-2.12-5.34s.71-3.92,2.12-5.33c1.42-1.41,3.13-2.11,5.13-2.11s3.7.7,5.12,2.11c1.43,1.41,2.15,3.19,2.15,5.33s-.71,3.91-2.14,5.34Z"/><path class="cls-1" d="M768.7,236.52c-1.27,0-2.51.37-3.72,1.13-1.21.76-2.22,1.9-3.01,3.41h-.03v-3.98h-6v25.58h6.45v-13.52c0-2.1.59-3.75,1.77-4.96,1.18-1.2,2.58-1.81,4.21-1.81.36,0,.77.03,1.24.1.46.07,1.01.19,1.65.37v-5.93c-.61-.15-1.1-.25-1.48-.31-.38-.05-.73-.08-1.06-.08Z"/><path class="cls-1" d="M792.47,230.73h-6.44v6.35h-3.76v5.3h3.76v13.13c0,2.67.68,4.62,2.03,5.86,1.36,1.23,3.15,1.86,5.36,1.86.72,0,1.41-.06,2.07-.18.67-.12,1.58-.37,2.73-.74v-4.98c-.92.29-1.56.47-1.92.53-.36.06-.75.1-1.17.1-.85,0-1.51-.23-1.97-.71-.47-.47-.7-1.28-.7-2.44v-12.42h5.79v-5.3h-5.79v-6.35Z"/><path class="cls-1" d="M816.45,236.52c-1.78,0-3.39.4-4.84,1.2-1.45.8-2.56,1.84-3.35,3.12h-.05v-13.13h-6.27v34.95h6.45v-14.38c0-1.78.56-3.26,1.67-4.41,1.12-1.15,2.45-1.71,4.03-1.71,1.7,0,2.94.49,3.74,1.48.8,1,1.2,2.32,1.2,3.96v15.06h6.45v-16.68c0-2.88-.8-5.17-2.4-6.89-1.61-1.72-3.82-2.57-6.63-2.57Z"/><path class="cls-1" d="M842.2,236.52c-3.75,0-6.92,1.26-9.49,3.78-2.57,2.53-3.86,5.71-3.86,9.57s1.29,7.05,3.87,9.57c2.58,2.53,5.81,3.78,9.68,3.78,1.95,0,3.63-.25,5.04-.76,1.41-.5,2.67-1.24,3.78-2.21,1.11-.97,2.16-2.34,3.15-4.11l-4.59-2.37c-.7,1.14-1.39,2-2.07,2.57-.69.58-1.44,1.02-2.26,1.32-.82.3-1.77.45-2.84.45-2.12,0-3.96-.75-5.51-2.25-1.22-1.17-1.81-2.72-2.08-4.47h19.93v-2.39c0-3.61-1.16-6.6-3.51-8.96-2.34-2.36-5.42-3.54-9.23-3.54ZM835.15,247.6c.33-1.34.86-2.56,1.79-3.53,1.46-1.5,3.23-2.26,5.31-2.26s3.57.55,4.8,1.65c1.24,1.1,1.9,2.48,2.02,4.14h-13.91Z"/><polygon class="cls-1" points="891.95 246.94 891.98 250.75 891.95 250.75 876.6 227.71 869.76 227.71 869.76 262.66 876.5 262.66 876.5 242.62 876.45 238.89 876.48 238.89 892.78 262.66 898.66 262.66 898.66 227.71 891.95 227.71 891.95 246.94"/><path class="cls-1" d="M916.41,236.51c-3.86,0-7.07,1.3-9.63,3.89-2.56,2.59-3.84,5.74-3.84,9.47s1.28,6.88,3.84,9.47c2.57,2.59,5.78,3.88,9.63,3.88s7.05-1.29,9.63-3.88c2.57-2.59,3.86-5.74,3.86-9.47s-1.29-6.88-3.86-9.47c-2.58-2.59-5.79-3.89-9.63-3.89ZM921.55,255.21c-1.43,1.43-3.14,2.14-5.14,2.14s-3.71-.71-5.13-2.14c-1.41-1.43-2.12-3.2-2.12-5.34s.71-3.92,2.12-5.33c1.42-1.41,3.13-2.11,5.13-2.11s3.7.7,5.12,2.11c1.43,1.41,2.15,3.19,2.15,5.33s-.71,3.91-2.14,5.34Z"/><path class="cls-1" d="M946.43,236.52c-1.27,0-2.51.37-3.72,1.13-1.21.76-2.22,1.9-3.01,3.41h-.03v-3.98h-6v25.58h6.45v-13.52c0-2.1.59-3.75,1.77-4.96,1.18-1.2,2.58-1.81,4.21-1.81.36,0,.77.03,1.23.1.46.07,1.01.19,1.65.37v-5.93c-.61-.15-1.1-.25-1.48-.31-.38-.05-.73-.08-1.06-.08Z"/><path class="cls-1" d="M970.83,240.43c-.82-1.18-1.93-2.12-3.39-2.8-1.57-.73-3.24-1.08-5-1.08-3.51,0-6.46,1.26-8.83,3.79-2.37,2.52-3.55,5.74-3.55,9.67s1.16,7,3.5,9.5c2.32,2.49,5.2,3.73,8.64,3.73,2.02,0,3.84-.4,5.48-1.2,1.55-.75,2.7-1.79,3.53-3.07v3.7h6.05v-34.95h-6.41v12.72ZM969,255.45c-1.37,1.47-3.14,2.21-5.28,2.21s-3.9-.7-5.32-2.11c-1.42-1.41-2.12-3.27-2.12-5.6s.7-4.2,2.11-5.62c1.4-1.41,3.18-2.12,5.33-2.12s3.82.72,5.24,2.16c1.41,1.44,2.11,3.3,2.11,5.58s-.69,4.03-2.06,5.51Z"/><path class="cls-1" d="M986.42,226.61c-1.08,0-1.99.37-2.74,1.08-.76.73-1.14,1.63-1.14,2.72s.38,1.97,1.14,2.73c.75.76,1.67,1.13,2.74,1.13s2.03-.37,2.77-1.12,1.11-1.66,1.11-2.73-.37-2-1.11-2.72c-.74-.72-1.67-1.08-2.77-1.08Z"/><rect class="cls-1" x="983.2" y="237.08" width="6.42" height="25.58"/><path class="cls-1" d="M1007.49,242.2c.98,0,1.85.16,2.61.48.75.32,1.41.75,1.96,1.29.56.55,1.15,1.39,1.78,2.53l5.47-2.2c-1.02-2.11-2.1-3.66-3.2-4.67-1.11-1-2.37-1.76-3.8-2.29-1.42-.53-3.08-.8-4.96-.8-3.86,0-7.06,1.25-9.59,3.75-2.54,2.5-3.81,5.69-3.81,9.56s1.26,7.09,3.77,9.61c2.52,2.51,5.72,3.77,9.61,3.77,2,0,3.72-.31,5.16-.92,1.44-.62,2.72-1.47,3.83-2.56,1.12-1.08,2.1-2.58,2.96-4.5l-5.47-2.15c-.59,1.12-1.19,1.99-1.81,2.61-.61.61-1.29,1.07-2.02,1.37-.73.3-1.57.45-2.52.45-2.02,0-3.74-.72-5.16-2.16-1.43-1.44-2.14-3.27-2.14-5.51s.71-4.04,2.14-5.48c1.43-1.44,3.16-2.16,5.19-2.16Z"/><polygon class="cls-1" points="1040.95 247.82 1055.55 247.82 1055.55 242.33 1040.95 242.33 1040.95 233.71 1057.21 233.71 1057.21 227.71 1033.9 227.71 1033.9 262.66 1057.38 262.66 1057.38 256.73 1040.95 256.73 1040.95 247.82"/><path class="cls-1" d="M1081.02,240.43c-.82-1.18-1.93-2.12-3.39-2.8-1.57-.73-3.24-1.08-5-1.08-3.51,0-6.46,1.26-8.83,3.79-2.37,2.52-3.55,5.74-3.55,9.67s1.16,7,3.5,9.5c2.32,2.49,5.2,3.73,8.64,3.73,2.02,0,3.84-.4,5.48-1.2,1.55-.75,2.7-1.79,3.53-3.07v3.7h6.05v-34.95h-6.41v12.72ZM1079.19,255.45c-1.37,1.47-3.14,2.21-5.28,2.21s-3.9-.7-5.32-2.11c-1.42-1.41-2.12-3.27-2.12-5.6s.7-4.2,2.11-5.62c1.4-1.41,3.18-2.12,5.33-2.12s3.82.72,5.23,2.16c1.41,1.44,2.11,3.3,2.11,5.58s-.69,4.03-2.06,5.51Z"/><path class="cls-1" d="M1112.31,240.5h-.03c-.76-1.12-1.91-2.06-3.47-2.83-1.55-.76-3.24-1.15-5.1-1.15-3.73,0-6.73,1.24-9.02,3.71-2.29,2.48-3.43,5.57-3.43,9.28s1.15,6.68,3.45,9.1c2.3,2.43,5.14,3.64,8.51,3.64,2.2,0,4.02-.39,5.46-1.16,1.43-.77,2.53-1.67,3.26-2.69h.05v2.1c0,2.23-.64,3.98-1.92,5.26-1.27,1.28-3.1,1.92-5.47,1.92-1.23,0-2.27-.14-3.16-.41-.88-.28-1.63-.68-2.25-1.19-.61-.53-1.39-1.49-2.34-2.91l-5.12,2.64c1.28,1.98,2.49,3.41,3.61,4.27,1.12.86,2.45,1.52,3.97,1.98,1.52.45,3.31.69,5.39.69,4.31,0,7.67-1.13,10.08-3.39,2.41-2.26,3.62-5.43,3.62-9.52v-22.72h-6.08v3.42ZM1110.11,254.98c-1.42,1.36-3.17,2.05-5.27,2.05s-3.87-.69-5.26-2.07c-1.39-1.39-2.09-3.2-2.09-5.44s.69-4.02,2.09-5.4c1.39-1.38,3.14-2.07,5.23-2.07s3.87.68,5.27,2.04c1.39,1.35,2.1,3.17,2.12,5.43.02,2.27-.69,4.1-2.1,5.47Z"/><path class="cls-1" d="M1148.26,249.02c0-3.61-1.16-6.6-3.51-8.96-2.34-2.36-5.42-3.54-9.23-3.54s-6.92,1.26-9.49,3.78c-2.57,2.53-3.86,5.71-3.86,9.57s1.29,7.05,3.87,9.57c2.58,2.53,5.81,3.78,9.68,3.78,1.95,0,3.63-.25,5.04-.76,1.41-.5,2.67-1.24,3.78-2.21,1.11-.97,2.16-2.34,3.15-4.11l-4.59-2.37c-.7,1.14-1.39,2-2.07,2.57-.69.58-1.44,1.02-2.26,1.32-.82.3-1.77.45-2.84.45-2.12,0-3.96-.75-5.51-2.25-1.22-1.17-1.81-2.72-2.08-4.47h19.93v-2.39ZM1128.47,247.6c.33-1.34.86-2.56,1.79-3.53,1.46-1.5,3.23-2.26,5.31-2.26s3.57.55,4.8,1.65c1.24,1.1,1.9,2.48,2.02,4.14h-13.91Z"/></svg>